<mxfile host="app.diagrams.net" modified="2021-09-15T18:29:11.033Z" agent="5.0 (Macintosh; Intel Mac OS X 10_15_7) AppleWebKit/537.36 (KHTML, like Gecko) Chrome/93.0.4577.63 Safari/537.36" etag="jBmjA0hkGGBj_INwtDTJ" version="15.2.5" type="github">
  <diagram id="WbdWfFszqAIyT5zd1EnR" name="Page-1">
    <mxGraphModel dx="1298" dy="841" grid="1" gridSize="10" guides="1" tooltips="1" connect="1" arrows="1" fold="1" page="1" pageScale="1" pageWidth="827" pageHeight="1169" math="0" shadow="0">
      <root>
        <mxCell id="0" />
        <mxCell id="1" parent="0" />
        <mxCell id="In2haiq_QlEXBdB9bMS_-1" value="Material App" style="rounded=1;whiteSpace=wrap;html=1;" vertex="1" parent="1">
          <mxGeometry x="350" y="160" width="120" height="60" as="geometry" />
        </mxCell>
        <mxCell id="In2haiq_QlEXBdB9bMS_-2" style="edgeStyle=orthogonalEdgeStyle;rounded=0;orthogonalLoop=1;jettySize=auto;html=1;entryX=0.5;entryY=0;entryDx=0;entryDy=0;" edge="1" parent="1" source="In2haiq_QlEXBdB9bMS_-5" target="In2haiq_QlEXBdB9bMS_-9">
          <mxGeometry relative="1" as="geometry" />
        </mxCell>
        <mxCell id="In2haiq_QlEXBdB9bMS_-3" style="edgeStyle=orthogonalEdgeStyle;rounded=0;orthogonalLoop=1;jettySize=auto;html=1;entryX=0.5;entryY=0;entryDx=0;entryDy=0;" edge="1" parent="1" source="In2haiq_QlEXBdB9bMS_-5" target="In2haiq_QlEXBdB9bMS_-11">
          <mxGeometry relative="1" as="geometry" />
        </mxCell>
        <mxCell id="In2haiq_QlEXBdB9bMS_-4" style="edgeStyle=orthogonalEdgeStyle;rounded=0;orthogonalLoop=1;jettySize=auto;html=1;exitX=0.5;exitY=1;exitDx=0;exitDy=0;entryX=0.5;entryY=0;entryDx=0;entryDy=0;" edge="1" parent="1" source="In2haiq_QlEXBdB9bMS_-5" target="In2haiq_QlEXBdB9bMS_-8">
          <mxGeometry relative="1" as="geometry" />
        </mxCell>
        <mxCell id="In2haiq_QlEXBdB9bMS_-5" value="Scaffold" style="rounded=1;whiteSpace=wrap;html=1;" vertex="1" parent="1">
          <mxGeometry x="350" y="250" width="120" height="60" as="geometry" />
        </mxCell>
        <mxCell id="In2haiq_QlEXBdB9bMS_-6" value="" style="endArrow=classic;html=1;exitX=0.5;exitY=1;exitDx=0;exitDy=0;entryX=0.5;entryY=0;entryDx=0;entryDy=0;" edge="1" parent="1" source="In2haiq_QlEXBdB9bMS_-1" target="In2haiq_QlEXBdB9bMS_-5">
          <mxGeometry width="50" height="50" relative="1" as="geometry">
            <mxPoint x="390" y="460" as="sourcePoint" />
            <mxPoint x="440" y="410" as="targetPoint" />
          </mxGeometry>
        </mxCell>
        <mxCell id="In2haiq_QlEXBdB9bMS_-7" style="edgeStyle=orthogonalEdgeStyle;rounded=0;orthogonalLoop=1;jettySize=auto;html=1;" edge="1" parent="1" source="In2haiq_QlEXBdB9bMS_-8" target="In2haiq_QlEXBdB9bMS_-12">
          <mxGeometry relative="1" as="geometry" />
        </mxCell>
        <mxCell id="In2haiq_QlEXBdB9bMS_-8" value="Center" style="rounded=1;whiteSpace=wrap;html=1;" vertex="1" parent="1">
          <mxGeometry x="350" y="360" width="120" height="60" as="geometry" />
        </mxCell>
        <mxCell id="In2haiq_QlEXBdB9bMS_-9" value="Color&amp;nbsp;" style="rounded=1;whiteSpace=wrap;html=1;" vertex="1" parent="1">
          <mxGeometry x="160" y="360" width="120" height="60" as="geometry" />
        </mxCell>
        <mxCell id="In2haiq_QlEXBdB9bMS_-10" style="edgeStyle=orthogonalEdgeStyle;rounded=0;orthogonalLoop=1;jettySize=auto;html=1;entryX=0.5;entryY=0;entryDx=0;entryDy=0;" edge="1" parent="1" source="In2haiq_QlEXBdB9bMS_-11" target="In2haiq_QlEXBdB9bMS_-13">
          <mxGeometry relative="1" as="geometry" />
        </mxCell>
        <mxCell id="In2haiq_QlEXBdB9bMS_-11" value="AppBar" style="rounded=1;whiteSpace=wrap;html=1;" vertex="1" parent="1">
          <mxGeometry x="560" y="360" width="120" height="60" as="geometry" />
        </mxCell>
        <mxCell id="In2haiq_QlEXBdB9bMS_-12" value="Image" style="rounded=1;whiteSpace=wrap;html=1;" vertex="1" parent="1">
          <mxGeometry x="350" y="480" width="120" height="60" as="geometry" />
        </mxCell>
        <mxCell id="In2haiq_QlEXBdB9bMS_-13" value="Text" style="rounded=1;whiteSpace=wrap;html=1;" vertex="1" parent="1">
          <mxGeometry x="560" y="480" width="120" height="60" as="geometry" />
        </mxCell>
      </root>
    </mxGraphModel>
  </diagram>
</mxfile>
